<?xml version="1.0" encoding="UTF-8" standalone="no"?>
<svg viewBox="0 0 288.84125 640.70007" xmlns="http://www.w3.org/2000/svg" xmlns:xlink="http://www.w3.org/1999/xlink">
<defs>
<filter id="filter4148">
<feGaussianBlur stdDeviation="1.16354"/>
</filter>
<filter id="filter4216">
<feGaussianBlur stdDeviation=".88861"/>
</filter>
<filter id="filter4236">
<feGaussianBlur stdDeviation=".56726"/>
</filter>
<filter id="filter4280">
<feGaussianBlur stdDeviation=".92569"/>
</filter>
<filter id="filter4308">
<feGaussianBlur stdDeviation="1.89678"/>
</filter>
<filter height="1.3416" id="filter3924" width="1.27161" x="-.1358" y="-.1708">
<feGaussianBlur stdDeviation="9.34556"/>
</filter>
<filter height="1.21355" id="filter3904" width="1.58612" x="-.29306" y="-.10677">
<feGaussianBlur stdDeviation="2.8987"/>
</filter>
<filter height="1.21625" id="filter3940" width="1.3287" x="-.16435" y="-.10812">
<feGaussianBlur stdDeviation="3.45867"/>
</filter>
<filter height="1.10851" id="filter3972" width="1.28072" x="-.14036" y="-.05426">
<feGaussianBlur stdDeviation="2.71753"/>
</filter>
<filter height="1.10453" id="filter3980" width="1.41451" x="-.20726" y="-.05226">
<feGaussianBlur stdDeviation="1.26489"/>
</filter>
<filter height="1.27627" id="filter4010" width="1.26652" x="-.13326" y="-.13813">
<feGaussianBlur stdDeviation="4.76748"/>
</filter>
<filter height="1.1898" id="filter4004" width="1.47548" x="-.23774" y="-.0949">
<feGaussianBlur stdDeviation="4.85312"/>
</filter>
<filter height="1.21481" id="filter4108" width="1.18408" x="-.09204" y="-.10741">
<feGaussianBlur stdDeviation="1.22981"/>
</filter>
<filter height="1.4154" id="filter4116" width="1.16875" x="-.08437" y="-.2077">
<feGaussianBlur stdDeviation="1.85997"/>
</filter>
<filter height="1.18914" id="filter4184" width="1.23277" x="-.11638" y="-.09457">
<feGaussianBlur stdDeviation="2.01173"/>
</filter>
<linearGradient id="linearGradient3794">
<stop offset="0" stop-color="#ab855d"/>
<stop offset="1" stop-color="#52300d"/>
</linearGradient>
<linearGradient id="linearGradient3806">
<stop offset="0" stop-color="#d8cbb8"/>
<stop offset="1" stop-color="#7a5e45"/>
</linearGradient>
<linearGradient gradientUnits="userSpaceOnUse" id="linearGradient4417" x1="293.10733" x2="244.49597" xlink:href="#linearGradient3806" y1="647.58044" y2="676.36981"/>
<linearGradient gradientUnits="userSpaceOnUse" id="linearGradient4419" x1="294.45724" x2="349.77145" xlink:href="#linearGradient3806" y1="689.7641" y2="660.46973"/>
<linearGradient gradientUnits="userSpaceOnUse" id="linearGradient4421" x1="222.32262" x2="267.24179" xlink:href="#linearGradient3806" y1="554.06396" y2="533.10327"/>
<linearGradient gradientUnits="userSpaceOnUse" id="linearGradient4425" x1="232.36046" x2="185.84268" xlink:href="#linearGradient3794" y1="277.5838" y2="292.48355"/>
<radialGradient cx="246.29488" cy="542.44177" gradientTransform="matrix(1,0,0,.61868,0,206.84142)" gradientUnits="userSpaceOnUse" id="radialGradient4415" r="50.93832" xlink:href="#linearGradient3794"/>
<radialGradient cx="337.14285" cy="809.86218" gradientTransform="matrix(1.44941,.01117,-.01741,1.1148,-137.41366,-96.73905)" gradientUnits="userSpaceOnUse" id="radialGradient4423" r="67.92165" xlink:href="#linearGradient3794"/>
</defs>
<title>Message in a Bottle</title>
<g transform="translate(-153.31633,-223.09663)">
<path d="m275.71429,822.71933-87.85715-264.28572c-2.28224-6.74889-3.13968-13.97587-2.5-21.07143 .66745-7.40359 2.71613-14.60613 4.64286-21.78571 2.42109-9.02171 5.16147-17.95774 8.21429-26.78572 1.36625-3.95086 2.79506-7.88009 4.28571-11.78571l-1.42857-12.85714-27.85714-115.71429 94.64285-35.71429c11.30556,34.20765 22.73423,68.37461 34.28572,102.5 2.25721,6.66826 4.51912,13.33493 6.78571,20l6.78572,8.21429 35.71428,32.14286c3.53055,3.16075 6.65885,6.77033 9.28572,10.71428 2.30696,3.46364 4.22741,7.18452 5.71428,11.07143 8.58207,32.02096 17.1535,64.04477 25.71429,96.07143 15.27198,57.13381 30.51007,114.27668 45.71428,171.42857 1.1543,5.03322 1.75432,10.19336 1.78572,15.35715 .0418,6.87625-.92756,13.75705-2.85715,20.35714-2.11573,7.23678-5.38646,14.13376-9.64285,20.35714-6.45695,9.44089-15.11342,17.2459-24.64286,23.57143-9.09542,6.03744-19.08181,10.8071-29.64286,13.57143-8.26241,2.16266-16.81733,3.0869-25.35714,3.21428-10.10522.15073-20.27599-.81791-30-3.57142-7.62085-2.15797-14.96318-5.42475-21.42857-10-8.88109-6.28473-16.00207-15.02979-20.35714-25" fill="#92c7d9" opacity=".48593" stroke="#5198a9" stroke-width="5"/>
<path d="m306.45503,850.33167c27.367,6.11257 56.74552,2.81313 82.07489-9.21764 17.87454-8.48993 33.71286-21.23039 45.83568-36.87057-3.33338,9.72068-8.50185,18.80858-15.15229,26.64278-8.17251,9.6272-18.5864,17.33957-30.17831,22.34962l-38.63834,8.5863-37.50191-4.79823-6.43972-6.69226" fill="#6ab1c7"/>
<path d="m400,809.86218c0,23.86659-28.14211,43.21429-62.85715,43.21429s-62.85714-19.3477-62.85714-43.21429 28.1421-43.21428 62.85714-43.21428 62.85715,19.34769 62.85715,43.21428z" fill="none" stroke="#5198a9" stroke-width="4.22229" transform="matrix(1.21661,-.40986,.33573,1.03954,-322.7588,98.106)"/>
<path d="m400,809.86218c0,23.86659-28.14211,43.21429-62.85715,43.21429s-62.85714-19.3477-62.85714-43.21429 28.1421-43.21428 62.85714-43.21428 62.85715,19.34769 62.85715,43.21428z" fill="#92c7d9" opacity=".60177" stroke="#5198a9" stroke-width="6.54927" transform="matrix(.75547,-.27434,.20848,.6958,-217.31091,-184.14467)"/>
<path d="m203.04066,459.90771 5.55584,9.59645c-.19631,1.68064-.3647,3.36454-.50508,5.05077-.27975,3.36037-.44823,6.73-.50507,10.10152-1.11047,3.89253-2.28922,7.76558-3.53554,11.61676-1.86924,5.77603-3.89047,11.50287-6.06091,17.17259-.85386,4.41145-1.86487,8.79247-3.03046,13.13198-.77396,2.88147-1.61607,5.74464-2.52538,8.5863l-1.01015,10.6066 2.0203,13.13198 3.53554,9.09138 3.03045-21.21321 6.566-8.58629 12.12183-8.5863 14.14213-6.56599 12.62691-4.54569 17.17259-9.09137c2.89023-1.10858 5.75346-2.28756 8.5863-3.53553 2.89503-1.27537 5.75831-2.62279 8.5863-4.04061l8.58629-1.51523 13.63706-4.54569c3.35011-.75532 6.71862-1.42902 10.10153-2.02031 3.35432-.58629 6.7228-1.09156 10.10152-1.51522l11.61676-.50508 13.63706,2.52538 3.53553,2.02031 3.53553,4.04061 2.02031,6.56599v-12.62691l-6.56599-9.09137-8.08122-9.59645-12.62691-11.61676-5.55584-6.56599-4.04061-3.53553-5.05076,1.01015-5.55584,8.5863-9.09137,4.54568-16.66752-6.56599-5.05076-9.09137-1.01016-6.56599-1.51522-6.06092-7.07107-2.52538-10.10153-.50507-14.64721,5.55583-10.10153,9.09138-5.55583,7.57614-7.57615,6.56599c-1.03856.88628-2.2447,1.5755-3.53553,2.02031-2.83826.97804-6.07949.71825-8.72573-.69938s-4.6582-3.97205-5.41641-6.87677" fill="#5198a9" filter="url(#filter3924)" opacity=".65929" stroke="#000"/>
<path d="m200,557.36218c-1.23342-2.82629-2.17009-5.84498-2.14286-8.92857 .0228-2.57857.77666-5.22462 2.5-7.14286 1.51361-1.68479 3.63199-2.68061 5.71429-3.57143 7.82973-3.3496 16.26208-5.98806 22.5-11.78571 2.28546-2.12415 4.23028-4.63828 6.78571-6.42857 4.11224-2.88097 9.31543-3.57388 14.28572-4.28572 6.04595-.8659 12.10743-1.88378 18.21428-1.78571 4.96842.0798 10.06127.95503 14.28572,3.57143 3.02741,1.87501 5.48036,4.5671 7.5,7.5 1.88152,2.73233 3.42883,5.72365 4.28571,8.92857 1.11862,4.18386 1.02607,8.64963 0,12.85714-1.15471,4.735-3.49588,9.18745-6.81109,12.75998-3.34569,3.60537-7.62652,6.27275-12.20394,8.07261s-9.45277,2.7567-14.34803,3.235c-9.79052.95659-19.6721.0293-29.49408.57527-3.70025.20567-7.39769.62054-11.10176.50202s-7.46871-.80197-10.68396-2.64488c-4.33281-2.48347-7.28818-6.85137-9.28571-11.42857" fill="url(#radialGradient4415)" stroke="#000" stroke-width="5"/>
<path d="m363.21429,785.21933c-1.58382,2.81702-3.64594,5.36433-6.07143,7.5-2.53914,2.23573-5.4662,4.01428-8.57143,5.35714-3.29721,1.42589-6.7986,2.36567-10.35714,2.85714-3.84078.53045-7.88974.51275-11.42858-1.07143-2.09751-.93896-3.93117-2.39311-5.54585-4.02834s-3.0264-3.45662-4.45415-5.25737c-1.5248-1.92315-3.07256-3.8281-4.64285-5.71429-.69129-3.13117-1.52578-6.23072-2.5-9.28571-.65215-2.04503-1.36688-4.0701-2.14286-6.07143 .18941-2.65546-.17794-5.34935-1.07143-7.85714-1.95858-5.49721-6.25431-9.77862-10.35714-13.92858-5.73876-5.80468-11.49879-11.97078-14.28572-19.64285-1.28391-3.53444-1.89328-7.31256-1.78571-11.07143l-1.42857-3.21429c-4.07261-4.2269-7.67346-8.908-10.71429-13.92857-2.70462-4.46546-4.96069-9.18584-7.14285-13.92857-.68149-1.48116-1.36814-3.01356-1.42858-4.64286-.0426-1.14891.23817-2.30809.80183-3.31013s1.40847-1.84396 2.41246-2.40415c1.29783-1.43764 1.9614-3.42834 1.78571-5.35715-.15261-1.67542-.89838-3.24736-1.83379-4.6457s-2.05837-2.65962-3.16621-3.92572l-5-5.71429c-1.61053-3.69923-4.0735-7.02424-7.14285-9.64286-2.49125-2.12541-5.34884-3.77193-8.21429-5.35714-4.13182-2.28579-8.4337-4.56361-11.42857-8.21429-2.21467-2.69964-3.57565-5.99456-4.65152-9.31651s-1.90088-6.7303-3.20562-9.9692c-2.3694-5.88184-5.90839-11.21-8.92857-16.78571l-4.64286-8.57143 12.85714,3.57143c-1.14926-2.16541-2.34003-4.3088-3.57143-6.42858-2.09211-3.60145-4.30089-7.13373-6.42857-10.71428-2.23304-3.75785-4.37671-7.56881-6.42857-11.42857l-2.85714-6.42857c1.55461,3.04977 4.09308,5.58824 7.14285,7.14285 3.92194,1.9992 8.45818,2.33415 12.85715,2.5 5.60614.21136 11.25161.20617 16.78571-.71428 5.06715-.84279 9.99764-2.4501 14.64286-4.64286 4.61181-2.17699 8.95216-4.93418 12.85714-8.21429 3.45773-2.90442 6.61956-6.28507 8.57143-10.35714 1.28168-2.67389 2.01545-5.60897 2.14286-8.57143l-1.07143-2.5 4.64286,9.64286 6.42857,7.5 .71428,1.78571c30.62989,76.67891 56.6448,155.201 77.85715,235.00001" fill="url(#linearGradient4417)" stroke="#000" stroke-linejoin="round" stroke-width="5"/>
<path d="m382.85714,812.71933c-15.51745-22.0703-30.40644-44.58246-44.64285-67.50001-14.47985-23.30943-28.2811-47.03207-42.14286-70.71428-5.22917-8.93381-10.46727-17.86239-15.71429-26.78572-1.27892-3.62597-2.35263-7.32431-3.21428-11.07142-.9785-4.25529-1.68265-8.56799-2.5-12.85715-.46681-2.44963-.97383-4.90344-1.83816-7.24257s-2.10405-4.57435-3.87613-6.32886c-.84862-.84021-1.81292-1.56343-2.85714-2.14285-2.69829-7.41823-4.73285-15.07775-6.07143-22.85715-.63119-3.66826-1.10794-7.36309-1.42857-11.07142l18.57143-14.64286 13.92857-14.28572 2.14286-6.42857-1.07143-10-4.28572-6.42857 7.5,6.78572 5,8.57142 1.78572,6.42858c1.25986,2.05537 2.5699,4.07998 3.92857,6.07142 1.48989,2.18378 3.03825,4.32766 4.64286,6.42858l4.64285,8.92857c-.004,2.06581.36039,4.13184 1.07143,6.07143 1.18004,3.21895 3.26745,6.00898 5.25179,8.80479s3.92737,5.72363 4.74821,9.05235c.402,1.6302.52335,3.32921.35714,5-.56377,3.77824-.68391,7.6225-.35714,11.42857 .79745,9.28851 4.31259,18.32743 10,25.71429 4.08985,10.81749 8.13751,21.65094 12.14286,32.5 2.98717,8.09119 5.95081,16.19105 8.92857,24.28571l2.5,6.78571c2.75382,2.82756 5.0539,6.0961 6.78571,9.64286 1.65596,3.39142 2.78894,7.02218 3.57143,10.71429 1.2989,6.12876 1.64173,12.42557 2.85715,18.57143 .87089,4.4037 2.18938,8.71875 3.92857,12.85714 2.51596,4.65693 4.55389,9.57195 6.07143,14.64286 1.11908,3.73944 1.95557,7.56342 2.5,11.42857 1.91575,4.56682 3.23978,9.38147 3.92857,14.28571 .59754,4.25455.71758,8.57599.35714,12.85715-.3436,2.2435-1.07164,4.42761-2.14286,6.42857-1.24547,2.32645-2.95555,4.40297-5,6.07143" fill="url(#linearGradient4419)" stroke="#000" stroke-linejoin="round" stroke-width="5"/>
<path d="m233.92857,564.86218c-4.23742-.41204-8.31811-1.93561-12.00943-4.05686s-7.01436-4.8311-10.13343-7.72885c-1.54136-1.43199-3.04523-2.92199-4.27483-4.62917s-2.18185-3.64997-2.51088-5.72798c-.32059-2.02475-.0319-4.13784.79242-6.01476s2.17843-3.51345 3.85044-4.69952c1.93686-1.37394 4.24652-2.1285 6.56706-2.63272s4.68697-.77736 7.00437-1.29585c3.72012-.83233 7.2733-2.28792 10.71428-3.92857 4.09897-1.95438 8.10977-4.19651 12.5-5.35715 4.53846-1.19983 9.38671-1.18689 13.92857,0 3.27831.8567 6.43812,2.34527 8.92857,4.64286 2.8028,2.58575 4.67626,6.20039 5,10 .2607,3.05979-.4672,6.15516-1.78571,8.92857-2.52218,5.30524-7.06033,9.36748-11.78571,12.85714-3.78693,2.79662-7.7949,5.33809-12.14286,7.14286-4.6196,1.91752-9.66458,2.98408-14.64286,2.5" fill="url(#linearGradient4421)" stroke="#000" stroke-width="5"/>
<path d="m366.1803,509.40519-2.52538,18.18275-3.03046,10.10152-2.52538,6.56599 2.0203,1.51523v3.53553l-2.0203,3.53554 4.04061.50507 .50507,4.04062-.50507,3.53553c2.07818,1.25724 4.10108,2.60584 6.06091,4.04061 .67924.49727 1.35087,1.00484 2.02031,1.51523 1.52655,1.16386 3.04187,2.34244 4.54568,3.53553l4.04061,4.54569 3.03046-2.02031-5.05076-16.16244-1.51523-9.09137-3.03046-5.05076v-4.04061l.50508-6.06092-6.56599-22.72843" fill="#5198a9" filter="url(#filter3904)" opacity=".69912"/>
<path d="m196.97975,541.73007 4.54568-12.62691 3.53554-7.57614 9.09137-9.09137 11.61675-5.55584 10.60661-6.06092 5.55583-5.05076 5.55584-6.06092c-2.02993.27511-4.05148.61203-6.06091,1.01016-1.52273.3017-3.0385.63853-4.54569,1.01015l.50508-6.56599-1.51523-7.57615-5.55584-4.54568 3.03046-8.08122c-2.1719,1.87164-4.36068,3.72369-6.56599,5.55584-2.66973,2.21799-5.36369,4.40683-8.08122,6.56599l-6.06092,15.15229c-2.11759,3.64971-4.13883,7.35532-6.06091,11.11167-1.95547,3.8216-3.80831,7.69571-5.55584,11.61676l-3.03046,14.14213-1.01015,12.62691" fill="#fff" filter="url(#filter3940)" opacity=".67929"/>
<path d="m177.28177,353.8417 3.53554,14.64721 5.05076,6.06091 3.53553,12.12183 2.52538,16.66752 .50508,13.13198c1.43672,6.08018 2.95212,12.14178 4.54569,18.18275 1.60453,6.08251 3.2883,12.14411 5.05076,18.18275l7.07107,13.63706 1.01015,7.57614 10.6066-12.12183 3.03046-18.18275-6.56599-20.20305c-3.24658-3.49192-6.44579-7.02789-9.59645-10.6066-3.07712-3.49518-6.10793-7.03112-9.09137-10.6066l-6.566-18.68782-.50507-11.11168-6.06092-13.13198-8.08122-5.55584" fill="#5198a9" filter="url(#filter3972)" opacity=".54867"/>
<path d="m180.81731,365.96353 7.57614,15.15229 1.51523,15.65736 5.55584,9.09137-1.51523,18.18275-13.13198-58.08377" fill="#fff" filter="url(#filter3980)" opacity=".78319"/>
<path d="m180.81731,355.35693 8.58629,13.13198 4.04061,10.6066 1.01016,10.6066c.60904,2.37479 1.2828,4.73298 2.0203,7.07107 .91319,2.8951 1.92411,5.75937 3.03046,8.5863l1.01015,1.51523 9.59645-6.06092 10.6066-3.03046 8.5863-.50507 6.06091-5.55584 4.54569-11.11168-5.55584-7.57614-9.59645-2.52539-11.11168.50508-3.53553-3.03046 5.05076-7.07107c2.68224-.71838 5.37648-1.39194 8.08122-2.0203 7.17498-1.66688 14.42389-3.01551 21.71828-4.04061l9.09138-4.04061 7.07106-7.57614 4.04061-10.10153 1.51523-9.09137-21.2132,18.18274-19.69798,9.09138-21.71828,4.54568-15.15228-1.01015-8.08122.50508" fill="#fff" filter="url(#filter4010)" opacity=".67257"/>
<path d="m266.1752,327.07265c-1.19793,4.25471-2.54592,8.46717-4.04061,12.62691-1.09965,3.06034-2.27869,6.09216-3.53554,9.09137l9.09137,15.15229c2.31159,7.25411 4.66868,14.49373 7.07107,21.71828 2.57044,7.72991 5.19314,15.44378 7.57615,23.23351 1.43428,4.68848 2.78146,9.40362 4.04061,14.14214l5.55584,13.63706 2.0203,11.11167 3.53553-6.06091 2.02031-11.61676-2.02031-10.6066 10.10153,23.23351c-6.67845-22.51318-13.75096-44.90947-21.2132-67.17514-5.66839-16.91322-11.56164-33.75108-17.67767-50.50763l-2.52538,2.0203" fill="#5398a9" filter="url(#filter4004)" opacity=".69469"/>
<path d="m275.71429,822.71933-87.85715-264.28572c-2.28224-6.74889-3.13968-13.97587-2.5-21.07143 .66745-7.40359 2.71613-14.60613 4.64286-21.78571 2.42109-9.02171 5.16147-17.95774 8.21429-26.78572 1.36625-3.95086 2.79506-7.88009 4.28571-11.78571l-1.42857-12.85714-27.35206-115.20921c7.3495,2.95085 15.23736,4.55477 23.15563,4.70848 9.65145.18735 19.24325-1.76198 28.45894-4.63542 9.35323-2.91633 18.5248-6.86242 26.18609-12.96918 7.47771-5.96043 13.34984-13.91613 16.84219-22.81817 11.05353,34.0663 22.31402,68.06544 33.78064,101.99492 2.25394,6.66936 4.51585,13.33604 6.78571,20l6.78572,8.21429 35.71428,32.14286c3.53055,3.16075 6.65885,6.77033 9.28572,10.71428 2.30696,3.46364 4.22741,7.18452 5.71428,11.07143 8.58207,32.02096 17.1535,64.04477 25.71429,96.07143 15.27198,57.13381 30.51007,114.27668 45.71428,171.42857 1.1543,5.03322 1.75432,10.19336 1.78572,15.35715 .0418,6.87625-.92756,13.75705-2.85715,20.35714-2.11573,7.23678-5.38646,14.13376-9.64285,20.35714-6.45695,9.44089-15.11342,17.2459-24.64286,23.57143-9.09542,6.03744-19.08181,10.8071-29.64286,13.57143-8.26241,2.16266-16.81733,3.0869-25.35714,3.21428-10.10522.15073-20.27599-.81791-30-3.57142-7.62085-2.15797-14.96318-5.42475-21.42857-10-8.88109-6.28473-16.00207-15.02979-20.35714-25" fill="none" stroke="#5198a9" stroke-width="5"/>
<path d="m400,809.86218c0,23.86659-28.14211,43.21429-62.85715,43.21429s-62.85714-19.3477-62.85714-43.21429 28.1421-43.21428 62.85714-43.21428 62.85715,19.34769 62.85715,43.21428z" fill="#92c7d9" opacity=".56195" stroke="#5198a9" stroke-width="5.94524" transform="matrix(.85593,-.29384,.2362,.74526,-263.63295,-188.20273)"/>
<path d="m400,809.86218c0,23.86659-28.14211,43.21429-62.85715,43.21429s-62.85714-19.3477-62.85714-43.21429 28.1421-43.21428 62.85714-43.21428 62.85715,19.34769 62.85715,43.21428z" fill="none" stroke="#5198a9" stroke-width="5.94524" transform="matrix(.85593,-.29384,.2362,.74526,-263.63295,-188.20273)"/>
<path d="m400,809.86218c0,23.86659-28.14211,43.21429-62.85715,43.21429s-62.85714-19.3477-62.85714-43.21429 28.1421-43.21428 62.85714-43.21428 62.85715,19.34769 62.85715,43.21428z" fill="url(#radialGradient4423)" stroke="#6f4923" stroke-width="10.12902" transform="matrix(.50851,-.17039,.14033,.43216,-90.40949,-43.5575)"/>
<path d="m163.13964,260.65512 22.22336,71.21576c11.61157,7.07459 26.71903,8.04926 39.1434,2.52538 10.28474-4.5726 18.58304-13.43033 22.4759-23.99112l-19.44544-70.96322c-3.21028,12.75937-13.10582,23.63466-25.50635,28.03173-6.48443,2.29929-13.56536,2.89262-20.34201,1.70451s-13.23339-4.15493-18.54886-8.52304" fill="url(#linearGradient4425)" stroke="#6f4923" stroke-linejoin="round" stroke-width="5"/>
<path d="m400,809.86218c0,23.86659-28.14211,43.21429-62.85715,43.21429s-62.85714-19.3477-62.85714-43.21429c0-5.96665 1.75888-11.65086 4.93963-16.82095s7.26425-9.01413 12.9517-12.92425-.78528-.77539 3.63915-3.50499c3.40701-2.10192-2.51516,18.81128 3.0258,24.88482 5.51932,6.04981 29.84518,8.93522 34.18456,8.93522s36.53539-.75128 41.89014-11.99831c.95795-8.11485-1.11453-24.21012 2.64553-23.11674 7.52013,2.18676-1.66011.078 4.02734,3.98809 11.37491,7.82024 18.41044,18.62382 18.41044,30.55711z" fill="#92c7d9" opacity=".5531" transform="matrix(.85593,-.29384,.2362,.74526,-263.63295,-188.20273)"/>
<path d="m166.04382,278.58533-7.57614,17.04633 2.14657,11.36421 8.83884,9.09137 23.23351,5.05077 28.28427-6.31346 23.35978-17.67767 9.21764-16.92005-1.38896-13.25825-6.18718-7.07107-9.97526-4.04061h-1.76777c1.595,2.7003 2.63305,5.72793 3.03046,8.83883 .35935,2.81296.19723,5.68333-.37881,8.46003-.83247,4.01276-2.52568,7.82756-4.79822,11.23795-2.60671,3.91188-5.97939,7.30618-9.84899,9.97526-3.05039,2.10402-6.41696,3.76367-9.97526,4.79822-4.0066,1.16488-8.2034,1.5279-12.37436,1.6415-4.2332.1153-8.50838-.0248-12.62692-1.01015-3.81306-.91227-7.44086-2.54256-10.73286-4.67196-3.28077-2.12213-6.28803-4.80418-8.20749-8.20749-1.42902-2.53373-2.21765-5.42535-2.27285-8.33376" fill="#b4cdd7" opacity=".70796"/>
<path d="m383.683,780.81553c23.33385,17.67109 21.41294,45.00098-4.29047,61.043s-65.45597,14.7214-88.78982-2.94969c-21.59952-16.35766-21.77495-41.28169-.40671-57.78229" fill="none" stroke="#5198a9" stroke-linecap="round" stroke-width="6.54927" transform="matrix(.75547,-.27434,.20848,.6958,-217.31091,-184.14467)"/>
<path d="m166.5489,318.86517-2.65164,9.21764 1.64149,6.94479 3.15673,5.68211 4.41941,4.16688c3.70603,1.37221 7.75913,1.79524 11.66864,1.21788 4.06099-.59973 7.95752-2.27918 11.18206-4.81958l-15.14828-3.09055-8.33375-5.42958-4.04062-6.18717-1.89404-7.70242" fill="#5198a9" filter="url(#filter4108)" opacity=".54867"/>
<path d="m167.18025,319.24397c.0204,4.9121 1.95373,9.79154 5.3033,13.38452 3.20648,3.43948 7.57987,5.64292 12.13327,6.81681s9.30342,1.37458 14.00442,1.26441c7.21956-.1692 14.42204-1.05891 21.46575-2.65165-7.25744.2961-14.54405-.12754-21.71828-1.26269-4.31807-.68323-8.70307-1.66698-12.37437-4.04061-1.8879-1.22059-3.55446-2.79924-4.79823-4.67195-.9217-1.38778-1.60783-2.93159-2.0203-4.54569-1.9672-.42799-3.90816-.97652-5.80838-1.6415-2.11953-.74172-4.18833-1.62835-6.18718-2.65165" fill="#fff" filter="url(#filter4116)" opacity=".76991"/>
<path d="m261.2507,291.71731c1.0434,5.24295.60097,10.77325-1.26269,15.78364-1.83334,4.92887-4.98971,9.29151-8.71256,13.00571-5.35225,5.33983-11.85406,9.39093-18.56156,12.87945-4.39639,2.28652-8.90754,4.35238-13.51079,6.18718 5.3757-.81491 10.64894-2.30332 15.65737-4.41942 6.28488-2.65541 12.13885-6.29312 17.42513-10.6066 3.41701-2.7882 6.59656-5.85429 9.72272-8.9651 2.5529-2.54036 5.1623-5.25998 6.18718-8.71257 .75679-2.54944.56467-5.34228-.37881-7.82868-1.1899-3.13579-3.57822-5.7997-6.56599-7.32361" fill="#68a1b1" filter="url(#filter4148)" opacity=".5177"/>
<path d="m260.8719,291.46478c.32726,3.02327.24205,6.09092-.25254,9.09137-.82049,4.97757-2.77864,9.76416-5.68211,13.8896-3.67041,3.9442-7.46082,7.77672-11.36422,11.49048-4.84639,4.61093-10.1573,9.1949-16.66751,10.73287-2.39192.56507-4.88615.69408-7.32361.37881 6.12492-1.74447 11.83539-4.92664 16.54125-9.21764 3.72807-3.39941 6.8263-7.48735 9.09137-11.99556 1.30354-2.30611 2.20499-4.83878 2.65165-7.44988 .37747-2.20666.32895-4.46274.12627-6.69226l-.25254-2.77792 4.9245-6.81853 2.39911-5.93464c.37264,2.5918.37264,5.23688 0,7.82868-.23423,1.62911-.61507,3.23711-1.13642,4.79822l6.9448-7.3236" fill="#fff" filter="url(#filter4184)" opacity=".70354"/>
<path d="m166.5489,283.63609c-1.44804,1.47167-2.6484,3.18646-3.53553,5.05077-.87974,1.84877-1.45626,3.8964-1.26269,5.93464 .16647,1.75296.90666,3.43427 2.0203,4.79823 1.36321,1.66965 3.23815,2.84637 5.17703,3.78807 3.67368,1.78427 7.68488,2.82376 11.74303,3.283 4.36498.49396 8.79586.32483 13.13198-.37881 4.42876-.71867 8.7668-1.99457 12.87944-3.78807-6.98469.48712-14.01795.27528-20.96066-.63135-2.6224-.34245-5.24387-.78665-7.75603-1.61326s-4.92272-2.05012-6.89118-3.81631c-2.18398-1.95957-3.78202-4.58571-4.41942-7.44987-.37736-1.69565-.42051-3.46501-.12627-5.17704" fill="#6ba1b1" filter="url(#filter4216)" opacity=".80531"/>
<path d="m238.26973,260.52885c.75578.60161 1.66659.97373 2.58091,1.28542s1.85002.57257 2.72239.98743c1.30908.62254 2.45184,1.59031 3.283,2.77792 .32643.46642.60965.97699.71633,1.5362 .0533.27961.0613.56922.008.84888s-.16823.54913-.34575.77164c-.23107.28962-.56261.49182-.91906.5929s-.73665.10433-1.10125.0384c-.55234-.0998-1.06634-.35354-1.53854-.65697s-.90916-.65794-1.36565-.98453c-.93675-.67018-1.95737-1.22302-3.03046-1.6415 .5641,1.14522 1.28892,2.21113 2.14658,3.15673 .8071.88985 1.73546,1.67575 2.77792,2.27284 .71402.40897 1.50395.74828 2.0203,1.38896 .28534.35404.47143.79186.50263,1.2455s-.0973.92089-.37636,1.27988c-.32201.41419-.82263.66321-1.33753.76384s-1.04687.065-1.56666-.006c-.72935-.0999-1.44918-.26931-2.14657-.50508-.33964,1.34426-.80533,2.65665-1.38896,3.91434-1.08968,2.34819-2.58534,4.49429-4.29315,6.43973-2.56716,2.92436-5.61119,5.40254-8.83883,7.57614-2.84802,1.91794-5.84902,3.60865-8.96511,5.05076 4.21126-.93235 8.29867-2.42255 12.12183-4.41941 5.38644-2.81337 10.2036-6.60099 14.77348-10.60661 2.14649-1.88146 4.29462-3.87913 5.55584-6.43972 1.08875-2.21042 1.44835-4.7726 1.01016-7.19733-.62151-2.35731-1.85041-4.55177-3.53554-6.31346-2.29106-2.39515-5.3391-3.93474-8.46003-5.05076-.91516-.32725-1.84191-.62213-2.77791-.88388 .26027,1.08724.89308,2.08166 1.76776,2.77791" fill="#6ea2b1" filter="url(#filter4236)" opacity=".72566"/>
<path d="m167.55905,284.26744c-.68296,2.40127-.50106,5.03883.50508,7.32361 .99873,2.26795 2.76294,4.14208 4.79822,5.55583 3.0205,2.09811 6.61459,3.22866 10.2278,3.91435 4.98311.94567 10.08039,1.0977 15.15229,1.13642 2.52809.0193 5.06174.0109 7.57614-.25254 4.63227-.48524 9.1554-1.83667 13.38452-3.78807 3.70001-1.70726 7.18732-3.87526 10.35407-6.43973 3.50548-2.83878 6.61697-6.16339 9.21764-9.84898l3.21986-5.42957c.74342.0144 1.4887-.0708 2.20971-.25254 .36546-.0921.72797-.21039 1.05288-.40139s.61214-.45975.77802-.79817c.20304-.41425.20939-.90794.0764-1.3497s-.3962-.83549-.7078-1.17568c-.85472-.93313-2.04928-1.47373-3.03045-2.27284-1.16432-.94828-2.01731-2.27267-2.39912-3.72494 1.02165-.0583 2.06088.3432 2.77792,1.07329 .44593.45404.76535,1.01921 1.20718,1.47723 .22092.22901.47444.43154.76531.56055s.62179.18093.9317.10879c.22156-.0516.42704-.16524.59545-.31817s.30023-.34434.39255-.55226c.18463-.41582.2096-.88844.14842-1.33928-.13984-1.03044-.71279-1.96752-1.45693-2.69389s-1.65336-1.26091-2.58368-1.72552c-1.4692-.73373-3.01092-1.30972-4.54568-1.89404-.82182-.31288-1.64258-.62856-2.46225-.94702l1.57836,5.74524c.089,1.70574.0255,3.41941-.1894,5.1139-.44259,3.48988-1.52892,6.88768-3.09359,10.03839-2.14799,4.32533-5.20409,8.19496-8.90197,11.30108-3.69446,3.10325-8.02208,5.44128-12.62691,6.88167-7.25521,2.26943-15.18462,2.27703-22.47589.12627-5.83106-1.72004-11.19784-4.7617-16.16244-8.27063-1.78433-1.26114-3.54845-2.60969-4.86136-4.35628-.58493-.77815-1.07383-1.6284-1.4521-2.52538" fill="#fff" filter="url(#filter4280)" opacity=".69469"/>
<path d="m203.54574,580.11586 74.75128,228.79956 9.09138,11.11167 17.17259,8.08122-16.66752-19.19289-12.12183-29.29443-15.65736-48.48732-6.06092-26.26397 5.55584-4.04061 8.08122,2.52539h7.57615l-3.53554-8.08122-13.63706-7.07107-13.13198-16.16244-14.64721-33.84011-14.64721-43.43656-7.57615-14.64722h-4.54568" fill="#f6fdff" filter="url(#filter4308)" opacity=".61947"/>
</g>
</svg>
